<?xml version="1.0" standalone="no"?><!DOCTYPE svg PUBLIC "-//W3C//DTD SVG 1.1//EN" "http://www.w3.org/Graphics/SVG/1.1/DTD/svg11.dtd"><svg t="1729411725465" class="icon" viewBox="0 0 1024 1024" version="1.1" xmlns="http://www.w3.org/2000/svg" p-id="15042" xmlns:xlink="http://www.w3.org/1999/xlink" width="128" height="128"><path d="M512 32c-35.36 0-64 28.64-64 64 0 23.616 12.864 43.872 32 55.008V224H320c-88 0-160 72-160 160v64H64v256h96v160h704V704h96V448h-96v-64c0-88-72-160-160-160H544v-72.992c19.136-11.136 32-31.36 32-55.008 0-35.36-28.64-64-64-64zM320 288h384c53.376 0 96 42.624 96 96v416h-64V640H288v160h-64V384c0-53.376 42.624-96 96-96z m64 128a63.968 63.968 0 1 0 0 128 63.968 63.968 0 1 0 0-128z m256 0a63.968 63.968 0 1 0 0 128 63.968 63.968 0 1 0 0-128z m-512 96h32v128h-32z m736 0h32v128h-32zM352 704h64v96h-64z m128 0h64v96h-64z m128 0h64v96h-64z" p-id="15043"></path></svg>