<?xml version="1.0" standalone="no"?><!DOCTYPE svg PUBLIC "-//W3C//DTD SVG 1.1//EN" "http://www.w3.org/Graphics/SVG/1.1/DTD/svg11.dtd"><svg t="1729411005588" class="icon" viewBox="0 0 1024 1024" version="1.1" xmlns="http://www.w3.org/2000/svg" p-id="8527" xmlns:xlink="http://www.w3.org/1999/xlink" width="128" height="128"><path d="M512 85.504c235.52 0 426.496 190.976 426.496 426.496S747.52 938.496 512 938.496 85.504 747.52 85.504 512 276.48 85.504 512 85.504z m0 84.992c-188.416 0-341.504 152.576-341.504 341.504s152.576 341.504 341.504 341.504c188.416 0 341.504-153.088 341.504-341.504 0-188.416-153.088-341.504-341.504-341.504z m-40.448 156.672l121.856 369.664H509.44l-27.136-89.6H361.984l-27.648 89.6H256l122.368-369.664h93.184z m256 0v369.664h-78.336V327.168h78.336zM424.448 402.944h-3.584L377.344 547.84h90.112l-43.008-144.896z" p-id="8528"></path></svg>