<?xml version="1.0" standalone="no"?><!DOCTYPE svg PUBLIC "-//W3C//DTD SVG 1.1//EN" "http://www.w3.org/Graphics/SVG/1.1/DTD/svg11.dtd"><svg t="1681924668923" class="icon" viewBox="0 0 1024 1024" version="1.1" xmlns="http://www.w3.org/2000/svg" p-id="7469" xmlns:xlink="http://www.w3.org/1999/xlink" width="128" height="128"><path d="M789.333333 128H234.666667a106.666667 106.666667 0 0 0-106.666667 106.666667v469.333333a106.666667 106.666667 0 0 0 106.666667 106.666667h554.666666a106.666667 106.666667 0 0 0 106.666667-106.666667V234.666667a106.666667 106.666667 0 0 0-106.666667-106.666667z m64 576a64 64 0 0 1-64 64H234.666667a64 64 0 0 1-64-64V234.666667a64 64 0 0 1 64-64h554.666666a64 64 0 0 1 64 64zM810.666667 853.333333H213.333333a21.333333 21.333333 0 0 0 0 42.666667h597.333334a21.333333 21.333333 0 0 0 0-42.666667z" p-id="7470" fill="#e6e6e6"></path><path d="M747.946667 328.106667l-168.746667 214.826666a21.333333 21.333333 0 0 1-16.426667 8.106667 21.333333 21.333333 0 0 1-16.426666-7.68l-79.146667-93.653333a64 64 0 0 0-95.573333-1.706667l-128 135.68a21.333333 21.333333 0 0 0 1.066666 30.293333 21.333333 21.333333 0 0 0 14.506667 5.76 21.333333 21.333333 0 0 0 15.573333-6.613333l128-135.893333a21.333333 21.333333 0 0 1 16.213334-6.613334 21.333333 21.333333 0 0 1 15.786666 7.466667l78.72 93.866667a61.44 61.44 0 0 0 50.133334 22.826666 64 64 0 0 0 49.28-24.533333l168.746666-214.613333a21.333333 21.333333 0 1 0-33.493333-26.453334z" p-id="7471" fill="#e6e6e6"></path></svg>