<?xml version="1.0" standalone="no"?><!DOCTYPE svg PUBLIC "-//W3C//DTD SVG 1.1//EN" "http://www.w3.org/Graphics/SVG/1.1/DTD/svg11.dtd"><svg t="1681924433557" class="icon" viewBox="0 0 1024 1024" version="1.1" xmlns="http://www.w3.org/2000/svg" p-id="4342" xmlns:xlink="http://www.w3.org/1999/xlink" width="128" height="128"><path d="M882.752 434.752l-74.304 0c-25.536-33.664-60.608-69.568-92.736-99.712l-2.688-2.432c-1.856-1.856-9.792-9.792-21.696-20.928-37.632-35.264-87.872-77.632-129.92-97.536l52.416 0c42.688 0 77.248-34.56 77.248-77.248 0-42.624-34.56-77.248-77.248-77.248L412.992 59.648c-42.624 0-77.248 34.624-77.248 77.248 0 42.688 34.624 77.248 77.248 77.248l62.272 0C416.896 238.272 352.64 297.28 321.28 328.704 295.36 351.424 252.416 392.256 221.568 434.752L141.248 434.752C98.56 434.752 64 469.376 64 512s34.56 77.248 77.248 77.248l77.76 0c23.36 30.656 54.656 62.528 81.984 88 11.904 11.264 20.416 18.752 22.464 20.48l2.624 2.496c44.224 41.344 100.288 88.64 145.472 109.632L405.248 809.856c-42.624 0-77.184 34.624-77.184 77.248s34.56 77.248 77.184 77.248l216.32 0c42.624 0 77.248-34.624 77.248-77.248s-34.624-77.248-77.248-77.248L550.784 809.856c53.952-24.96 123.392-87.36 155.712-118.272 23.872-22.016 65.6-62.528 97.088-102.4l79.168 0C925.44 589.248 960 554.688 960 512S925.44 434.752 882.752 434.752zM412.992 182.144c-24.96 0-45.248-20.288-45.248-45.248s20.288-45.248 45.248-45.248l200.832 0c24.96 0 45.248 20.288 45.248 45.248S638.72 182.144 613.824 182.144L412.992 182.144zM621.568 841.856c24.96 0 45.248 20.288 45.248 45.248s-20.288 45.248-45.248 45.248l-216.32 0c-24.896 0-45.184-20.288-45.184-45.248s20.288-45.248 45.184-45.248L621.568 841.856zM141.248 557.248C116.288 557.248 96 536.96 96 512s20.288-45.248 45.248-45.248l200.832 0c24.96 0 45.248 20.288 45.248 45.248S366.976 557.248 342.08 557.248L141.248 557.248zM686.528 672.896c0 0-126.464 120.768-173.888 121.6-43.072 0.768-147.648-95.232-166.592-113.024-1.92-1.856-3.008-2.88-3.008-2.88s-8.896-7.744-22.08-19.968C302.72 641.472 276.544 615.616 254.4 589.248l87.68 0c42.624 0 77.248-34.624 77.248-77.248S384.704 434.752 342.08 434.752L256.704 434.752C292.864 390.4 338.688 349.696 341.248 347.456c4.096-4.096 131.904-132.032 189.248-116.8 41.92 11.072 107.328 68.352 140.8 99.776 13.12 12.352 21.376 20.672 21.376 20.672S693.76 352 695.68 353.856c10.56 9.92 47.04 44.992 77.184 80.96l-90.944 0C639.296 434.752 604.672 469.376 604.672 512s34.624 77.248 77.248 77.248l85.632 0C730.688 632 686.528 672.896 686.528 672.896zM882.752 557.248l-200.832 0c-24.96 0-45.248-20.288-45.248-45.248s20.288-45.248 45.248-45.248l200.832 0c24.96 0 45.248 20.288 45.248 45.248S907.712 557.248 882.752 557.248z" p-id="4343" fill="#e6e6e6"></path></svg>