<?xml version="1.0" standalone="no"?><!DOCTYPE svg PUBLIC "-//W3C//DTD SVG 1.1//EN" "http://www.w3.org/Graphics/SVG/1.1/DTD/svg11.dtd"><svg t="1681961120773" class="icon" viewBox="0 0 1024 1024" version="1.1" xmlns="http://www.w3.org/2000/svg" p-id="14879" xmlns:xlink="http://www.w3.org/1999/xlink" width="128" height="128"><path d="M972.8 256c0-141.3888-206.3104-256-460.8-256S51.2 114.6112 51.2 256s206.3104 256 460.8 256 460.8-114.6112 460.8-256z m-25.6 0q0 40.6528-27.5968 79.36-31.7696 44.5952-94.208 79.2832-64.2048 35.6608-149.2736 54.3744Q597.12 486.4 512 486.4q-85.12 0-164.096-17.3824-85.0944-18.688-149.2992-54.3744-62.4384-34.688-94.208-79.2576Q76.8 296.6528 76.8 256t27.5968-79.36q31.7696-44.5952 94.208-79.2832 64.2048-35.6608 149.2736-54.3744Q426.88 25.6 512 25.6q85.12 0 164.096 17.3824 85.0944 18.688 149.2992 54.3744 62.4384 34.688 94.208 79.2576Q947.2 215.3472 947.2 256zM71.9872 435.7632C58.4704 459.8272 51.2 485.4272 51.2 512c0 129.1776 172.2112 236.0064 396.032 253.4912a12.6208 12.6208 0 0 0 13.568-12.672 12.9024 12.9024 0 0 0-11.9296-12.8768q-51.6864-4.096-100.992-14.9248-85.0688-18.688-149.2736-54.3744-62.4384-34.688-94.208-79.2576Q76.8 552.6528 76.8 512q0-31.6928 16.7936-62.2336a13.5168 13.5168 0 0 0-2.944-16.7168l-0.0512-0.0512c-5.8624-5.0688-14.848-3.9936-18.6112 2.7648zM960 512a11.9552 11.9552 0 0 0 12.2368-12.7744 157.696 157.696 0 0 0-20.224-63.488c-3.7888-6.7328-12.7488-7.808-18.6112-2.7392l-0.0512 0.0512a13.5168 13.5168 0 0 0-2.944 16.7168q13.3888 24.3456 16.128 49.4336c0.7424 7.04 6.4 12.8 13.4656 12.8zM768 1024c141.3888 0 256-114.6112 256-256s-114.6112-256-256-256-256 114.6112-256 256 114.6112 256 256 256z m214.2208-340.8128Q998.4 724.0448 998.4 768t-16.1792 84.8128q-17.5616 44.3648-51.3024 78.1056t-78.1056 51.3024Q811.9552 998.4 768 998.4t-84.8128-16.1792q-44.3648-17.5616-78.1056-51.3024t-51.3024-78.1056Q537.6 811.9552 537.6 768t16.1792-84.8128q17.5616-44.3648 51.3024-78.1056t78.1056-51.3024Q724.0448 537.6 768 537.6t84.8128 16.1792q44.3648 17.5616 78.1056 51.3024t51.3024 78.1056zM691.2 627.2a12.8 12.8 0 0 1 12.8 12.8v129.6384a51.2 51.2 0 0 1 0 99.1488V896a12.8 12.8 0 0 1-25.6 0v-27.2128a51.2 51.2 0 0 1 0-99.1488V640a12.8 12.8 0 0 1 12.8-12.8z m166.4 12.8a12.8 12.8 0 0 0-25.6 0v27.2384a51.2 51.2 0 0 0 0 99.1232V896a12.8 12.8 0 0 0 25.6 0v-129.6384a51.2 51.2 0 0 0 0-99.1232V640zM512 1011.2c0 7.0656-5.7856 12.8-12.8512 12.6976C250.624 1020.1088 51.2 906.9824 51.2 768c0-26.5472 7.2704-52.1728 20.7872-76.2368 3.7888-6.7584 12.7488-7.8336 18.6112-2.7648l0.0512 0.0512a13.5168 13.5168 0 0 1 2.944 16.6912Q76.8 736.3072 76.8 768q0 40.6272 27.5968 79.36 31.7696 44.5952 94.208 79.2832 64.2048 35.6608 149.2736 54.3744 73.088 16.0768 151.3984 17.28A12.9024 12.9024 0 0 1 512 1011.2z" p-id="14880" fill="#e6e6e6"></path></svg>