<?xml version="1.0" standalone="no"?><!DOCTYPE svg PUBLIC "-//W3C//DTD SVG 1.1//EN" "http://www.w3.org/Graphics/SVG/1.1/DTD/svg11.dtd"><svg t="1681976823276" class="icon" viewBox="0 0 1024 1024" version="1.1" xmlns="http://www.w3.org/2000/svg" p-id="16298" xmlns:xlink="http://www.w3.org/1999/xlink" width="128" height="128"><path d="M521.984 989.376c-108.672 0-240.64 0.128-349.312 0-94.208-0.128-132.096-38.4-132.096-132.864v-527.68c0.064-83.2 40.128-124.288 123.712-124.48 222.848-0.512 468.992-0.576 691.84 0.064 85.824 0.256 127.168 42.752 127.232 127.808 0.128 176.832 0.128 353.6 0 530.432-0.064 86.464-39.872 126.4-127.168 126.656-111.36 0.384-222.784 0.064-334.208 0.064z m338.496-46.4c55.936-0.064 75.968-20.48 76.032-76.864v-538.496c0-56.448-20.032-76.928-75.904-76.992-224.576-0.128-472.512-0.128-697.088 0-55.936 0-75.968 20.544-76.032 76.864v538.432c0 56.448 20.032 76.864 75.904 76.992 111.36 0.192 246.08 0.064 357.44 0.064 113.216 0 226.432 0.128 339.648 0zM208.32 75.328c-19.2 0-40.256-0.96-39.552-21.12 0.64-18.304 21.376-19.52 38.976-19.584 125.248-0.256 484.8-0.256 610.048-0.064 18.944 0 39.872 1.408 39.232 21.76-0.64 19.136-20.928 18.944-38.656 18.944-63.168 0.128-424.576 0.064-487.68 0.064h-122.368z" fill="#e6e6e6" p-id="16299"></path><path d="M174.656 143.04l-54.976 100.416c-4.544 8.32-8.96 16.896-14.72 24.32-8.448 10.88-20.096 16.768-32.768 10.24-14.016-7.232-17.344-21.632-10.176-34.944 66.944-123.584 38.976-72.384 106.88-195.392 6.656-12.096 19.136-16.768 32.256-10.048 14.528 7.488 16.768 21.12 10.496 34.816-10.112 22.016-22.144 43.2-33.728 64.576-22.144 40.832 19.072-34.816-3.264 6.016zM844.416 136.96c-11.584-21.376-23.616-42.56-33.728-64.576-6.272-13.696-4.032-27.328 10.496-34.816 13.12-6.72 25.6-2.048 32.256 10.048 67.904 123.072 39.936 71.808 106.88 195.392 7.232 13.376 3.904 27.776-10.176 34.944-12.672 6.528-24.32 0.64-32.768-10.24-5.76-7.424-10.176-16-14.72-24.32-28.992-52.8-26.048-47.552-54.976-100.416-22.336-40.768 18.88 34.88-3.264-6.016z" fill="#e6e6e6" p-id="16300"></path><path d="M204.992 107.84h20.032v74.496h-20.032zM794.944 107.84h20.032v74.496h-20.032zM204.992 273.856h20.032v394.496h-20.032zM794.944 273.856h20.032v107.52h-20.032zM914.496 960.512l20.736-20.736-132.224-227.52-23.616 14.144zM197.376 787.136l-23.616-14.144-103.616 166.784 20.736 20.736z" p-id="16301" fill="#e6e6e6"></path><path d="M794.944 489.216h20.032v227.136h-20.032zM305.344 716.416H814.976v20.032h-509.632z" p-id="16302" fill="#e6e6e6"></path><path d="M225.984 772.992l219.52-196.8 101.056 100.16 249.344-212.928v-50.112l-249.344 212.928-101.056-100.096-219.52 196.736z" p-id="16303" fill="#e6e6e6"></path></svg>