<svg xmlns="http://www.w3.org/2000/svg" viewBox="0 0 305.08 205.54"><defs><linearGradient id="a95eb2c6b-715a-4af1-9321-13df64a9202b" x1="152.54" y1="237.44" x2="152.54" y2="-18.28" gradientUnits="userSpaceOnUse"><stop offset="0" stop-color="#00e5ff"/><stop offset="1" stop-color="#0087ff"/></linearGradient></defs><g><path d="M249.67 205.54h-129.3a56 56 0 0 1 0-111.92h67.06a40.18 40.18 0 1 1 0 80.36h-64.31a7.25 7.25 0 0 1 0-14.5h64.31a25.68 25.68 0 1 0 0-51.37h-67.06a41.46 41.46 0 0 0 0 82.93h129.3a40.88 40.88 0 0 0 2.29-81.7 7.25 7.25 0 0 1-6.78-6.24A42.16 42.16 0 0 0 204 67a7.25 7.25 0 0 1-6.86-5.11 67.16 67.16 0 0 0-129.87 6.05 7.25 7.25 0 0 1-5.61 5.62 59.39 59.39 0 0 0-12.18 112.26 7.25 7.25 0 1 1-6 13.21A73.89 73.89 0 0 1 54.15 60.48 81.66 81.66 0 0 1 133 0a80.93 80.93 0 0 1 48.94 16.29 82.48 82.48 0 0 1 27.43 36.47 56.44 56.44 0 0 1 49.07 42.72 55.38 55.38 0 0 1-8.78 110.06z" fill="url(#a95eb2c6b-715a-4af1-9321-13df64a9202b)"/></g></svg>