<?xml version="1.0" standalone="no"?><!DOCTYPE svg PUBLIC "-//W3C//DTD SVG 1.1//EN" "http://www.w3.org/Graphics/SVG/1.1/DTD/svg11.dtd"><svg t="1681977503457" class="icon" viewBox="0 0 1024 1024" version="1.1" xmlns="http://www.w3.org/2000/svg" p-id="27976" xmlns:xlink="http://www.w3.org/1999/xlink" width="128" height="128"><path d="M512 1019.345455c-232.727273 0-418.909091-186.181818-418.909091-418.909091s186.181818-418.909091 418.909091-418.909091 418.909091 186.181818 418.909091 418.909091-186.181818 418.909091-418.909091 418.909091z m0-744.727273c-181.527273 0-325.818182 144.290909-325.818182 325.818182s144.290909 325.818182 325.818182 325.818181 325.818182-144.290909 325.818182-325.818181-144.290909-325.818182-325.818182-325.818182zM837.818182 186.181818c-51.2-41.890909-111.709091-74.472727-176.872727-93.090909l27.927272-88.436364c74.472727 23.272727 144.290909 60.509091 204.8 111.709091L837.818182 186.181818zM190.836364 186.181818L130.327273 111.709091C190.836364 60.509091 260.654545 23.272727 335.127273 0l27.927272 93.090909c-65.163636 18.618182-121.018182 51.2-172.218181 93.090909z" fill="#e6e6e6" p-id="27977"></path><path d="M656.290909 656.290909H432.872727V432.872727h93.090909v130.327273h130.327273z" fill="#e6e6e6" p-id="27978"></path></svg>