<?xml version="1.0" standalone="no"?><!DOCTYPE svg PUBLIC "-//W3C//DTD SVG 1.1//EN" "http://www.w3.org/Graphics/SVG/1.1/DTD/svg11.dtd"><svg t="1683278344204" class="icon" viewBox="0 0 1024 1024" version="1.1" xmlns="http://www.w3.org/2000/svg" p-id="27881" xmlns:xlink="http://www.w3.org/1999/xlink" width="128" height="128"><path d="M776.532811 615.47717c-48.096875 0-80.161458 32.064583-80.161458 80.161458s32.064583 80.161458 80.161458 80.161458 80.161458-32.064583 80.161458-80.161458-32.064583-80.161458-80.161458-80.161458z m-248.500519-216.435937c-24.048437 0-40.080729 16.032292-40.080729 40.080729s16.032292 40.080729 40.080729 40.080729 40.080729-16.032292 40.080729-40.080729-24.048437-40.080729-40.080729-40.080729z m-304.613541 216.435937c-32.064583 0-56.113021 24.048437-56.11302 48.096874 0 32.064583 24.048437 56.113021 56.11302 56.113021s48.096875-24.048437 48.096875-56.113021c0-24.048437-24.048437-48.096875-48.096875-48.096874z m553.11406 208.41979C704.387499 823.89696 640.320959 767.796465 640.320959 687.635007c0-16.032292 0-32.064583 8.016146-48.096875l-80.161458-120.242187c-8.016146 8.016146-24.048437 16.032292-40.080729 16.032292-24.048437 0-48.096875-8.016146-64.129167-32.064583l-144.290624 120.242187c8.016146 16.032292 8.016146 24.048437 8.016146 40.080729 0 56.113021-48.096875 104.209895-104.209896 104.209895s-112.226041-48.096875-112.226041-104.209895 48.096875-104.209895 112.226041-104.209896c24.048437 0 48.096875 8.016146 64.129167 16.032292L431.838542 447.150633v-8.016146c0-48.096875 40.080729-96.19375 96.19375-96.193749s96.19375 40.080729 96.193749 96.193749c0 16.032292 0 24.048437-8.016146 40.080729l80.161458 120.242187c16.032292-24.048437 48.096875-40.080729 80.161458-40.080729 72.145312 0 136.274479 56.113021 136.274479 136.274479 0 72.145312-64.129166 128.258333-136.274479 128.258333z" fill="#00D929" p-id="27882"></path><path d="M1017.330316 319.293107q0-54.660094-21.518341-87.463665a33.818115 33.818115 0 0 0-3.181408-8.191499C922.138585 93.513351 949.819338 144.165372 881.869977 21.042383c-0.501009-9.60685-5.974534-14.817345-13.77775-17.635521a22.883591 22.883591 0 0 0-16.282796-2.943429c-3.970497-0.26303-8.053721-0.325656-12.04927-0.325655C705.552345 0 320.063409 0 185.780442 0.212929c-4.709486 0-9.6319 0.112727-14.366437 0.55111-11.272705-2.505046-21.393089 2.75555-27.279946 13.452095-72.809149 131.878124-42.823754 76.992575-114.605834 209.484435a33.580136 33.580136 0 0 0-3.168883 8.279175Q6.544432 263.656046 6.544432 315.635741v565.777066c0 101.278992 40.619314 142.311638 141.62275 142.449415 116.484619 0.137778 258.019693 0 374.504312 0 119.465623 0 238.931246 0.338181 358.321717-0.062626C974.606764 1023.511516 1017.330316 980.725338 1017.330316 888.038652q0.237979-284.435398 0-568.745545zM868.392832 109.933925l2.780601 5.135343 0.726463 1.252523c20.804403 38.026592 26.240352 48.009198 36.936897 67.548553a236.037918 236.037918 0 0 0-27.881157-1.67838l-35.922354-0.100202V66.621687c7.552712 14.541789 15.531282 28.883175 23.35955 43.312238zM812.455165 43.838297v138.24094c-194.579414-0.438383-402.059813-0.400807-597.040034 0V43.838297h102.168283c61.135637 0 383.284496 0.075151 494.871751 0zM150.296471 116.484619l0.350707-0.638787 3.143832-5.811706c9.819779-18.111479 19.902587-36.110232 29.058528-54.497266v126.554902l-43.675469 0.100202a233.357519 233.357519 0 0 0-25.651667 1.427876z m717.144444 835.770876q-172.196832 0.200404-344.443765 0c-112.914929 0-249.515063 0.125252-362.442517-0.062626-19.025821 0-33.930842-2.417369-45.366375-7.703015l81.238627-140.708409a13.276741 13.276741 0 0 0-4.859788-18.13653l-5.210495-3.006055a13.276741 13.276741 0 0 0-18.13653 4.859788L91.40285 920.604244c-5.385848-11.660987-7.765641-26.95429-7.765641-46.518696V328.160969c0.062626-57.102514 20.378546-77.944493 77.092777-77.944493h22.119552v26.904189a15.69411 15.69411 0 0 0 15.694111 15.694111h1.177371a15.69411 15.69411 0 0 0 15.694111-15.694111v-26.929239c194.316384-0.087677 402.698599-0.087677 597.040034 0v39.441942A15.69411 15.69411 0 0 0 828.199376 305.327478h1.177372a15.69411 15.69411 0 0 0 15.69411-15.69411v-39.429417h22.54541c56.651605 0.062626 76.967525 20.829454 76.967525 78.069745V874.260901c0 20.616525-2.692924 36.460938-8.767659 48.334855l-53.182118-92.110526a13.276741 13.276741 0 0 0-18.111479-4.809687l-5.210495 3.006054a13.276741 13.276741 0 0 0-4.859788 18.13653l56.852009 98.485867c-11.26018 4.772112-25.676717 6.926451-43.863348 6.951501z" fill="#0066EB" p-id="27883"></path><path d="M150.647178 115.808256c-16.107443 29.734891 21.931674-40.080729 0 0zM871.160908 115.069268c-21.292887-38.828206 16.959158 31.31307 0 0z" fill="#0066EB" p-id="27884"></path><path d="M182.849538 342.928212l32.565593 0 0 203.722831-32.565593 0 0-203.722831Z" fill="#0066EB" p-id="27885"></path><path d="M812.455165 355.45344l32.565592 0 0 203.722831-32.565592 0 0-203.722831Z" fill="#0066EB" p-id="27886"></path><path d="M345.715076 631.409259l260.07383 0 0 32.565593-260.07383 0 0-32.565593Z" fill="#0066EB" p-id="27887"></path></svg>