<?xml version="1.0" standalone="no"?><!DOCTYPE svg PUBLIC "-//W3C//DTD SVG 1.1//EN" "http://www.w3.org/Graphics/SVG/1.1/DTD/svg11.dtd"><svg t="1681924778651" class="icon" viewBox="0 0 1024 1024" version="1.1" xmlns="http://www.w3.org/2000/svg" p-id="9413" xmlns:xlink="http://www.w3.org/1999/xlink" width="128" height="128"><path d="M622.336 647.957333a27.157333 27.157333 0 1 0-38.4 38.4l95.061333 95.018667a27.157333 27.157333 0 1 0 38.4-38.4l-95.061333-95.018667z" fill="#e6e6e6" p-id="9414"></path><path d="M682.24 571.52c12.757333-76.885333-18.133333-154.474667-80.938667-203.370667-62.826667-48.874667-147.946667-61.589333-223.146666-33.301333-9.173333 3.413333-15.936 11.093333-17.962667 20.394667-2.026667 9.301333 0.96 18.944 7.936 25.642666l89.045333 85.888c5.461333 5.269333 8.533333 12.416 8.533334 19.84 0 7.466667-3.072 14.613333-8.533334 19.882667l-28.522666 27.52a29.653333 29.653333 0 0 1-20.586667 8.213333 29.653333 29.653333 0 0 1-20.586667-8.234666l-89.322666-86.165334a29.824 29.824 0 0 0-26.517334-7.637333c-9.6 1.92-17.557333 8.362667-21.162666 17.173333-29.717333 72.405333-16.96 154.624 33.429333 215.466667 50.389333 60.842667 130.709333 90.986667 210.474667 79.04l132.714666 128c33.493333 32.32 82.282667 44.928 128 33.109333 45.738667-11.818667 81.472-46.293333 93.717334-90.389333 12.266667-44.117333-0.810667-91.2-34.304-123.477333l-132.266667-127.616z m91.093333 268.650667c-29.013333 27.946667-76.010667 27.946667-105.024 0l-155.029333-149.546667-15.722667 3.498667c-52.117333 11.669333-106.88-1.493333-147.221333-35.370667-40.362667-33.877333-61.44-84.373333-56.682667-135.765333l52.629334 50.773333a89.024 89.024 0 0 0 61.781333 24.682667 89.024 89.024 0 0 0 61.802667-24.682667l28.501333-27.52a82.794667 82.794667 0 0 0 25.6-59.605333 82.794667 82.794667 0 0 0-25.6-59.584l-52.096-50.261334c53.269333-4.245333 105.386667 16.384 140.245333 55.466667 34.837333 39.104 48.170667 91.925333 35.84 142.08l-3.733333 15.253333 154.730667 149.269334a69.909333 69.909333 0 0 1-0.021334 101.312z" fill="#e6e6e6" p-id="9415"></path><path d="M871.168 433.152L550.570667 110.293333a84.394667 84.394667 0 0 0-119.850667 0L110.122667 433.152a85.717333 85.717333 0 0 0 13.333333 131.626667V853.333333c0 47.04 38.037333 85.333333 84.757333 85.333334H490.666667c15.594667 0 28.245333-12.736 28.245333-28.437334 0-15.722667-12.650667-28.458667-28.245333-28.458666H208.213333A28.373333 28.373333 0 0 1 179.946667 853.333333V547.306667c0-12.16-7.637333-22.954667-19.050667-26.901334a28.586667 28.586667 0 0 1-10.816-47.018666L470.677333 150.528a28.16 28.16 0 0 1 39.957334 0L831.232 473.386667c5.333333 5.333333 8.277333 12.48 8.277333 20.117333a28.266667 28.266667 0 0 1-19.072 26.88 28.458667 28.458667 0 0 0-19.093333 26.901333v68.053334c0 15.701333 12.650667 28.437333 28.245333 28.437333 15.594667 0 28.245333-12.736 28.245334-28.437333v-50.56A85.013333 85.013333 0 0 0 896 493.525333c0-22.826667-8.810667-44.266667-24.832-60.373333z" fill="#e6e6e6" p-id="9416"></path></svg>