<?xml version="1.0" standalone="no"?><!DOCTYPE svg PUBLIC "-//W3C//DTD SVG 1.1//EN" "http://www.w3.org/Graphics/SVG/1.1/DTD/svg11.dtd"><svg t="1681924229728" class="icon" viewBox="0 0 1024 1024" version="1.1" xmlns="http://www.w3.org/2000/svg" p-id="4079" xmlns:xlink="http://www.w3.org/1999/xlink" width="128" height="128"><path d="M512 394.666667A147.2 147.2 0 1 0 364.8 247.466667 147.626667 147.626667 0 0 0 512 394.666667z m0-209.066667a61.866667 61.866667 0 1 1-61.866667 61.866667A61.866667 61.866667 0 0 1 512 185.6zM810.666667 580.693333a147.2 147.2 0 1 0 147.2 146.773334A147.2 147.2 0 0 0 810.666667 580.693333z m0 208.64a61.866667 61.866667 0 1 1 61.866666-61.866666A61.866667 61.866667 0 0 1 810.666667 789.333333zM213.333333 580.693333a147.2 147.2 0 1 0 147.2 146.773334A147.2 147.2 0 0 0 213.333333 580.693333z m0 208.64a61.866667 61.866667 0 1 1 61.866667-61.866666A61.866667 61.866667 0 0 1 213.333333 789.333333zM802.56 519.68a42.666667 42.666667 0 0 0 42.666667 34.133333h8.533333a42.666667 42.666667 0 0 0 33.28-50.346666 384 384 0 0 0-128-213.333334 42.666667 42.666667 0 0 0-55.466667 65.28 298.666667 298.666667 0 0 1 98.986667 164.266667zM628.906667 850.773333a298.666667 298.666667 0 0 1-239.36-2.56 42.666667 42.666667 0 1 0-35.413334 77.653334 384 384 0 0 0 308.48 3.413333 42.666667 42.666667 0 0 0 22.613334-56.32 42.666667 42.666667 0 0 0-56.32-22.186667zM170.666667 549.12a32 32 0 0 0 8.96 0 42.666667 42.666667 0 0 0 42.666666-33.706667 298.666667 298.666667 0 0 1 101.12-165.973333 42.666667 42.666667 0 0 0 5.973334-59.733333 42.666667 42.666667 0 0 0-60.16-5.973334 384 384 0 0 0-130.56 213.333334A42.666667 42.666667 0 0 0 170.666667 549.12z" fill="#e6e6e6" p-id="4080"></path></svg>