<?xml version="1.0" standalone="no"?><!DOCTYPE svg PUBLIC "-//W3C//DTD SVG 1.1//EN" "http://www.w3.org/Graphics/SVG/1.1/DTD/svg11.dtd"><svg t="1681925258036" class="icon" viewBox="0 0 1024 1024" version="1.1" xmlns="http://www.w3.org/2000/svg" p-id="13791" xmlns:xlink="http://www.w3.org/1999/xlink" width="128" height="128"><path d="M512 704.6c-106.1 0-192.4-86.3-192.4-192.4S406 319.9 512 319.9s192.4 86.3 192.4 192.4S618.1 704.6 512 704.6z m0-320.7c-70.8 0-128.4 57.6-128.4 128.4S441.3 640.6 512 640.6 640.4 583 640.4 512.2 582.8 383.9 512 383.9zM337.6 277.2c-10.4 0-20.6-5.1-26.8-14.4-9.7-14.8-5.6-34.6 9.1-44.3 37.5-24.7 78.8-41.8 122.7-50.7 17.3-3.5 34.2 7.7 37.7 25s-7.7 34.2-25 37.7c-35.9 7.3-69.6 21.2-100.3 41.4-5.2 3.6-11.3 5.3-17.4 5.3zM200 480.3c-2.1 0-4.3-0.2-6.4-0.6-17.3-3.5-28.5-20.4-25-37.7 9.1-45 26.8-87.2 52.5-125.5 9.9-14.7 29.7-18.6 44.4-8.7 14.7 9.9 18.6 29.7 8.7 44.4-21 31.3-35.4 65.8-42.9 102.5-3.1 15.2-16.4 25.6-31.3 25.6zM247 721.2c-10.3 0-20.5-5-26.7-14.3-25.3-38-42.8-79.9-51.8-124.5-3.5-17.3 7.7-34.2 25-37.7s34.2 7.7 37.7 25c7.4 36.5 21.6 70.7 42.3 101.8 9.8 14.7 5.8 34.6-8.9 44.4-5.3 3.6-11.5 5.3-17.6 5.3zM449.1 857.3c-2.1 0-4.3-0.2-6.4-0.6-44.7-9.1-86.7-26.6-124.7-52-14.7-9.8-18.7-29.7-8.8-44.4 9.8-14.7 29.7-18.7 44.4-8.8 31.1 20.8 65.4 35.1 101.9 42.5 17.3 3.5 28.5 20.4 25 37.7-3.1 15.2-16.5 25.6-31.4 25.6zM577.1 857.3c-14.9 0-28.2-10.5-31.3-25.6-3.5-17.3 7.7-34.2 25-37.7 36.2-7.4 70.1-21.5 101-41.9 14.7-9.8 34.6-5.7 44.4 9 9.8 14.7 5.7 34.6-9 44.4-37.7 25-79.3 42.3-123.6 51.3-2.3 0.3-4.4 0.5-6.5 0.5zM779.4 720.7c-6.1 0-12.2-1.7-17.7-5.3-14.7-9.8-18.7-29.6-9-44.4 20.5-30.9 34.7-65 42-101.3 3.5-17.3 20.4-28.5 37.7-25 17.3 3.5 28.5 20.4 25 37.7-9 44.4-26.3 86.1-51.4 124-6.1 9.3-16.2 14.3-26.6 14.3zM826.1 480.3c-14.9 0-28.2-10.5-31.3-25.6-7.4-36.4-21.6-70.6-42.2-101.6-9.8-14.7-5.8-34.6 8.9-44.4 14.7-9.8 34.6-5.8 44.4 8.9 25.3 37.9 42.7 79.8 51.7 124.3 3.5 17.3-7.7 34.2-25 37.7-2.2 0.5-4.4 0.7-6.5 0.7zM689.7 278c-6.1 0-12.2-1.7-17.7-5.4-30.9-20.6-65-34.8-101.3-42.1-17.3-3.5-28.5-20.4-25-37.7 3.5-17.3 20.4-28.5 37.7-25 44.4 9 86.1 26.4 124 51.6 14.7 9.8 18.7 29.7 8.9 44.4-6.1 9.2-16.2 14.2-26.6 14.2z" fill="#e6e6e6" p-id="13792"></path><path d="M917 607.7h-88.6c-17.7 0-32-14.3-32-32s14.3-32 32-32H897v-63.3h-68.6c-17.7 0-32-14.3-32-32s14.3-32 32-32H917c24.3 0 44 19.7 44 44v103.3c0 24.2-19.8 44-44 44z m0-127.4zM762.1 878.2c-11.8 0-22.8-4.6-31.1-12.9l-62.7-62.7c-12.5-12.5-12.5-32.8 0-45.3s32.8-12.5 45.3 0l48.5 48.5 44.8-44.8-48.5-48.5c-12.5-12.5-12.5-32.8 0-45.3s32.8-12.5 45.3 0l62.7 62.7c8.3 8.3 12.9 19.3 12.9 31.1s-4.6 22.8-12.9 31.1l-73.1 73.1c-8.4 8.4-19.4 13-31.2 13zM821 775.3zM564.7 960H461.3c-24.3 0-44-19.7-44-44v-88.6c0-17.7 14.3-32 32-32s32 14.3 32 32V896h63.3v-68.6c0-17.7 14.3-32 32-32s32 14.3 32 32V916c0.1 24.2-19.7 44-43.9 44zM263.9 878.2c-11.8 0-22.8-4.6-31.1-12.9l-73.1-73.1c-17.2-17.2-17.2-45.1 0-62.2l62.7-62.7c12.5-12.5 32.8-12.5 45.3 0s12.5 32.8 0 45.3l-48.5 48.5 44.8 44.8 48.5-48.5c12.5-12.5 32.8-12.5 45.3 0s12.5 32.8 0 45.3L295 865.3c-8.3 8.3-19.4 12.9-31.1 12.9zM197.7 607.7H109c-24.3 0-44-19.7-44-44V460.3c0-24.3 19.7-44 44-44h88.6c17.7 0 32 14.3 32 32s-14.3 32-32 32H129v63.3h68.6c17.7 0 32 14.3 32 32s-14.3 32.1-31.9 32.1zM245 366c-8.2 0-16.4-3.1-22.6-9.4L159.7 294c-8.3-8.3-12.9-19.3-12.9-31.1s4.6-22.8 12.9-31.1l73.1-73.1c17.2-17.2 45.1-17.2 62.2 0l62.7 62.7c12.5 12.5 12.5 32.8 0 45.3s-32.8 12.5-45.3 0l-48.5-48.5-44.8 44.8 48.5 48.5c12.5 12.5 12.5 32.8 0 45.3-6.2 6.1-14.4 9.2-22.6 9.2zM576.7 228.7c-17.7 0-32-14.3-32-32V128h-63.3v68.6c0 17.7-14.3 32-32 32s-32-14.3-32-32V108c0-24.3 19.7-44 44-44h103.3c24.3 0 44 19.7 44 44v88.6c0 17.7-14.4 32.1-32 32.1zM781 366c-8.2 0-16.4-3.1-22.6-9.4-12.5-12.5-12.5-32.8 0-45.3l48.5-48.5-44.8-44.8-48.5 48.5c-12.5 12.5-32.8 12.5-45.3 0s-12.5-32.8 0-45.3l62.7-62.7c8.3-8.3 19.4-12.9 31.1-12.9 11.8 0 22.8 4.6 31.1 12.9l73.1 73.1c8.3 8.3 12.9 19.3 12.9 31.1s-4.6 22.8-12.9 31.1l-62.7 62.7c-6.2 6.4-14.4 9.5-22.6 9.5z" fill="#e6e6e6" p-id="13793"></path></svg>