<?xml version="1.0" standalone="no"?><!DOCTYPE svg PUBLIC "-//W3C//DTD SVG 1.1//EN" "http://www.w3.org/Graphics/SVG/1.1/DTD/svg11.dtd"><svg t="1683277961340" class="icon" viewBox="0 0 1024 1024" version="1.1" xmlns="http://www.w3.org/2000/svg" p-id="3603" xmlns:xlink="http://www.w3.org/1999/xlink" width="128" height="128"><path d="M249.3 848.5l-35.6-56.3v-603c0-19.6 16-35.6 35.6-35.6s35.6 16 35.6 35.6v603l-35.6 56.3z" fill="#B6F5FF" p-id="3604"></path><path d="M249.3 861.6l-42.6-67.4v-605c0-23.5 19.1-42.6 42.6-42.6s42.6 19.1 42.6 42.6v605l-42.6 67.4z m-28.6-71.4l28.6 45.2 28.6-45.2v-601c0-15.8-12.8-28.6-28.6-28.6s-28.6 12.8-28.6 28.6v601zM180.1 497.6h-14V343.9c0-23.5 19.1-42.6 42.6-42.6v14c-15.8 0-28.6 12.8-28.6 28.6v153.7z" fill="#0F13AE" p-id="3605"></path><path d="M213.7 702.4h71.2" fill="#B6F5FF" p-id="3606"></path><path d="M213.7 695.4h71.2v14h-71.2z" fill="#0F13AE" p-id="3607"></path><path d="M213.7 231.2h71.2" fill="#B6F5FF" p-id="3608"></path><path d="M213.7 224.2h71.2v14h-71.2z" fill="#0F13AE" p-id="3609"></path><path d="M868.8 844.5H335.1V142.1h442.2l91.5 90.7v611.7z m-519.7-14h505.7V238.6l-83.3-82.5H349.1v674.4z" fill="#0F13AE" p-id="3610"></path><path d="M859.6 245.9h-96.3v-96.8h14v82.8h82.3z" fill="#0F13AE" p-id="3611"></path><path d="M460.1 386.4c-1.9 0-3.7-0.5-5.5-1.4l-23.3-12.4-23.3 12.3c-3.9 2.1-8.6 1.7-12.2-0.9-3.6-2.6-5.3-7-4.6-11.4l4.6-25.9-18.8-18.5c-3.2-3.1-4.3-7.7-2.9-11.9s5-7.2 9.4-7.9l26.1-3.7 11.8-23.6c2-4 6-6.4 10.4-6.4s8.4 2.5 10.4 6.5l11.6 23.7 26.1 3.9c4.4 0.7 8 3.7 9.3 7.9s0.2 8.8-3 11.9l-18.9 18.3 4.3 26c0.7 4.4-1.1 8.7-4.7 11.3-2.1 1.5-4.4 2.2-6.8 2.2z m1.1-13.7z m-29.8-14.3c1.9 0 3.7 0.5 5.4 1.4l20.1 10.7-3.8-22.4c-0.6-3.8 0.6-7.6 3.4-10.3l16.3-15.8-22.5-3.4c-3.8-0.6-7-3-8.7-6.4l-10-20.4-10.1 20.4c-1.7 3.4-5 5.8-8.8 6.3l-22.5 3.2 16.2 15.9c2.7 2.7 4 6.5 3.3 10.3l-3.9 22.4 20.2-10.5c1.7-1 3.5-1.4 5.4-1.4z" fill="#49A3FE" p-id="3612"></path><path d="M520.7 265h80.1v14h-80.1zM629.4 265h140.9v14H629.4zM733 308.4h28.1v14H733zM520.7 308.4H713v14H520.7zM520.7 350.3h114.1v14H520.7zM658.5 350.3h111.8v14H658.5zM629.4 396h140.9v14H629.4zM575.8 395.3h28.1v14h-28.1zM517.7 395.3h28.1v14h-28.1z" fill="#49A3FE" p-id="3613"></path><path d="M593.1 658.2m-123.3 0a123.3 123.3 0 1 0 246.6 0 123.3 123.3 0 1 0-246.6 0Z" fill="#B6F5FF" p-id="3614"></path><path d="M593.1 788.5c-71.8 0-130.3-58.4-130.3-130.3s58.4-130.3 130.3-130.3 130.3 58.4 130.3 130.3-58.5 130.3-130.3 130.3z m0-246.6c-64.1 0-116.3 52.2-116.3 116.3S529 774.5 593.1 774.5s116.3-52.2 116.3-116.3-52.2-116.3-116.3-116.3z" fill="#0F13AE" p-id="3615"></path><path d="M593.1 738.1c-44.1 0-79.9-35.8-79.9-79.9s35.8-79.9 79.9-79.9c44.1 0 79.9 35.8 79.9 79.9s-35.9 79.9-79.9 79.9z m0-145.8c-36.3 0-65.9 29.6-65.9 65.9s29.6 65.9 65.9 65.9c36.3 0 65.9-29.6 65.9-65.9s-29.6-65.9-65.9-65.9z" fill="#0F13AE" p-id="3616"></path><path d="M589.292 653.082L732.35 503.038l10.133 9.662-143.058 150.044z" fill="#0F13AE" p-id="3617"></path><path d="M764.4 526.5l-38.8-6.2-8.3-41.4 58.9-62.7 7.6 40.4 43.1 6.4-62.5 63.5z m-27-18.4l22 3.5 38.1-38.7-25.7-3.8-4.3-23.1-35 37.3 4.9 24.8z" fill="#0F13AE" p-id="3618"></path></svg>