<?xml version="1.0" standalone="no"?><!DOCTYPE svg PUBLIC "-//W3C//DTD SVG 1.1//EN" "http://www.w3.org/Graphics/SVG/1.1/DTD/svg11.dtd"><svg t="1681977099513" class="icon" viewBox="0 0 1024 1024" version="1.1" xmlns="http://www.w3.org/2000/svg" p-id="23815" xmlns:xlink="http://www.w3.org/1999/xlink" width="128" height="128"><path d="M972.224 793.92v-687.104a56.96 56.96 0 0 0-57.024-57.024H229.44a57.024 57.024 0 0 0-57.024 57.024v65.152c0 0.832-0.64 1.472-1.472 1.472h-63.168a57.024 57.024 0 0 0-57.024 57.024v685.76a56.96 56.96 0 0 0 57.024 57.024h685.76a56.96 56.96 0 0 0 57.024-57.024v-65.152c0-0.832 0.64-1.472 1.472-1.472h64.768a55.744 55.744 0 0 0 55.424-55.68z m-755.072-695.936c0-1.984 1.6-3.456 3.456-3.456h701.952c2.688 0 4.928 2.24 4.928 4.928v700.48a4.992 4.992 0 0 1-4.928 4.928h-70.656a1.472 1.472 0 0 1-1.472-1.472l2.112-572.224a56.96 56.96 0 0 0-57.024-57.024l-576.896-0.704a1.472 1.472 0 0 1-1.472-1.472v-73.984z m585.088 830.4h-701.888a4.928 4.928 0 0 1-4.928-4.928v-700.48c0-2.688 2.176-4.928 4.928-4.928l702.592 0.704c2.688 0 4.928 2.24 4.928 4.928l-2.112 701.12a3.52 3.52 0 0 1-3.52 3.584z m0 0" p-id="23816" fill="#e6e6e6"></path><path d="M456.192 357.888a55.488 55.488 0 0 0-53.568-55.424h-155.392a55.488 55.488 0 0 0-53.632 55.424v139.328c0 30.656 24.896 55.552 55.552 55.552h151.616a55.552 55.552 0 0 0 55.552-55.552v-139.328h-0.128z m-44.608 146.688a3.456 3.456 0 0 1-3.456 3.456h-166.464a3.456 3.456 0 0 1-3.456-3.456v-154.048c0-1.984 1.6-3.456 3.456-3.456h166.336c1.984 0 3.456 1.6 3.456 3.456v154.048h0.128z m290.56-146.688a55.488 55.488 0 0 0-53.632-55.424h-91.52a55.488 55.488 0 0 0-53.568 55.424v445.952c0 30.656 24.896 55.552 55.552 55.552h87.616a55.552 55.552 0 0 0 55.552-55.552v-445.952z m-44.608 453.376a3.456 3.456 0 0 1-3.456 3.456h-102.464a3.456 3.456 0 0 1-3.456-3.456v-460.672c0-1.984 1.6-3.456 3.456-3.456h102.336c1.984 0 3.456 1.6 3.456 3.456v460.672h0.128z m-198.464-147.072a55.488 55.488 0 0 0-53.632-55.424h-155.52a55.488 55.488 0 0 0-53.632 55.424v139.328c0 30.656 24.896 55.552 55.552 55.552h151.616a55.552 55.552 0 0 0 55.552-55.552v-139.328z m-44.8 146.688a3.456 3.456 0 0 1-3.456 3.456h-166.336a3.456 3.456 0 0 1-3.456-3.456v-154.048c0-1.984 1.6-3.456 3.456-3.456h166.336c1.984 0 3.456 1.6 3.456 3.456v154.048z m0 0" p-id="23817" fill="#e6e6e6"></path></svg>