<?xml version="1.0" standalone="no"?><!DOCTYPE svg PUBLIC "-//W3C//DTD SVG 1.1//EN" "http://www.w3.org/Graphics/SVG/1.1/DTD/svg11.dtd"><svg t="1681977707439" class="icon" viewBox="0 0 1024 1024" version="1.1" xmlns="http://www.w3.org/2000/svg" p-id="30735" xmlns:xlink="http://www.w3.org/1999/xlink" width="128" height="128"><path d="M512 554.666667c-106.666667 0-192-85.333333-192-192 0-12.8 8.533333-21.333333 21.333333-21.333334s21.333333 8.533333 21.333334 21.333334c0 83.2 66.133333 149.333333 149.333333 149.333333s149.333333-66.133333 149.333333-149.333333c0-12.8 8.533333-21.333333 21.333334-21.333334s21.333333 8.533333 21.333333 21.333334c0 106.666667-85.333333 192-192 192z" fill="#e6e6e6" p-id="30736"></path><path d="M512 192c-93.866667 0-170.666667 76.8-170.666667 170.666667h341.333334c0-93.866667-76.8-170.666667-170.666667-170.666667z" fill="#e6e6e6" p-id="30737"></path><path d="M682.666667 384H341.333333c-12.8 0-21.333333-8.533333-21.333333-21.333333 0-106.666667 85.333333-192 192-192s192 85.333333 192 192c0 12.8-8.533333 21.333333-21.333333 21.333333z m-317.866667-42.666667H661.333333c-10.666667-72.533333-72.533333-128-147.2-128-74.666667 0-138.666667 55.466667-149.333333 128z" fill="#e6e6e6" p-id="30738"></path><path d="M768 384H256c-12.8 0-21.333333-8.533333-21.333333-21.333333s8.533333-21.333333 21.333333-21.333334h512c12.8 0 21.333333 8.533333 21.333333 21.333334s-8.533333 21.333333-21.333333 21.333333zM512 213.333333c-12.8 0-21.333333-8.533333-21.333333-21.333333V106.666667c0-12.8 8.533333-21.333333 21.333333-21.333334s21.333333 8.533333 21.333333 21.333334v85.333333c0 12.8-8.533333 21.333333-21.333333 21.333333z" fill="#e6e6e6" p-id="30739"></path><path d="M512 597.333333c-200.533333 0-362.666667 153.6-362.666667 341.333334h725.333334c0-187.733333-162.133333-341.333333-362.666667-341.333334z" fill="#e6e6e6" p-id="30740"></path><path d="M874.666667 960H149.333333c-12.8 0-21.333333-8.533333-21.333333-21.333333 0-200.533333 172.8-362.666667 384-362.666667s384 162.133333 384 362.666667c0 12.8-8.533333 21.333333-21.333333 21.333333zM170.666667 917.333333h682.666666c-12.8-166.4-160-298.666667-341.333333-298.666666S183.466667 750.933333 170.666667 917.333333z" fill="#e6e6e6" p-id="30741"></path><path d="M384 853.333333c-12.8 0-21.333333-8.533333-21.333333-21.333333v-85.333333c0-12.8 8.533333-21.333333 21.333333-21.333334s21.333333 8.533333 21.333333 21.333334v85.333333c0 12.8-8.533333 21.333333-21.333333 21.333333zM640 853.333333c-12.8 0-21.333333-8.533333-21.333333-21.333333v-85.333333c0-12.8 8.533333-21.333333 21.333333-21.333334s21.333333 8.533333 21.333333 21.333334v85.333333c0 12.8-8.533333 21.333333-21.333333 21.333333z" fill="#e6e6e6" p-id="30742"></path></svg>