<svg viewBox="0 0 1024 1024" version="1.1" xmlns="http://www.w3.org/2000/svg" width="200" height="200"><path d="M512 64C299.9 64 128 124.4 128 199v626c0 74.6 171.9 135 384 135s384-60.4 384-135V199C896 124.4 724.1 64 512 64z m320 761c0 33.4-127.4 71-320 71s-320-37.6-320-71v-96.6C262.7 766.5 380.6 790 512 790s249.3-23.5 320-61.6V825z m0-192c0 33.4-127.4 71-320 71s-320-37.6-320-71v-96.6C262.7 574.5 380.6 598 512 598s249.3-23.5 320-61.6V633z m0-192c0 33.4-127.4 71-320 71s-320-37.6-320-71v-96.6C262.7 382.5 380.6 406 512 406s249.3-23.5 320-61.6V441z m-320-50c-192.6 0-320-37.6-320-71s127.4-71 320-71 320 37.6 320 71-127.4 71-320 71z"/></svg>
